HIERARCHY
ROOT newVegas:Hips
{
	OFFSET 0.000000 96.479958 0.000000
	CHANNELS 6 Xposition Yposition Zposition Xrotation Yrotation Zrotation
	JOINT newVegas:Pelvis
	{
		OFFSET 0.000000 0.000000 0.000000
		CHANNELS 3 Xrotation Yrotation Zrotation
		JOINT newVegas:LeftUpLeg
		{
			OFFSET 18.735201 -5.666702 -4.541200
			CHANNELS 3 Xrotation Yrotation Zrotation
			JOINT newVegas:LeftLeg
			{
				OFFSET -0.021200 -31.938179 0.493100
				CHANNELS 3 Xrotation Yrotation Zrotation
				JOINT newVegas:LeftFoot
				{
					OFFSET 0.021200 -31.938179 -4.336299
					CHANNELS 3 Xrotation Yrotation Zrotation
					JOINT newVegas:LeftToeBase
					{
						OFFSET 0.943001 -26.722000 15.023500
						CHANNELS 3 Xrotation Yrotation Zrotation
						End Site
						{
							OFFSET 0.000000 30.670183 0.000000
						}
					}
				}
				JOINT newVegas:Left_PantLeg
				{
					OFFSET 0.663870 -9.044666 -1.108900
					CHANNELS 3 Xrotation Yrotation Zrotation
					End Site
					{
						OFFSET 1.415995 20.635357 0.000000
					}
				}
			}
		}
		JOINT newVegas:RightUpLeg
		{
			OFFSET -18.735201 -5.666702 -4.541200
			CHANNELS 3 Xrotation Yrotation Zrotation
			JOINT newVegas:RightLeg
			{
				OFFSET 0.018946 -31.938133 0.493100
				CHANNELS 3 Xrotation Yrotation Zrotation
				JOINT newVegas:RightFoot
				{
					OFFSET -0.018946 -31.938126 -4.336299
					CHANNELS 3 Xrotation Yrotation Zrotation
					JOINT newVegas:RightToeBase
					{
						OFFSET -0.943001 -26.722004 15.023500
						CHANNELS 3 Xrotation Yrotation Zrotation
						End Site
						{
							OFFSET 0.000000 30.670187 0.000000
						}
					}
				}
				JOINT newVegas:Right_PantLeg
				{
					OFFSET -0.661674 -9.044716 -1.108900
					CHANNELS 3 Xrotation Yrotation Zrotation
					End Site
					{
						OFFSET -1.415958 20.635269 0.000000
					}
				}
			}
		}
	}
	JOINT newVegas:Spine
	{
		OFFSET 0.000000 10.199997 -0.299500
		CHANNELS 3 Xrotation Yrotation Zrotation
		JOINT newVegas:Spine1
		{
			OFFSET 0.000000 11.900002 -1.516600
			CHANNELS 3 Xrotation Yrotation Zrotation
			JOINT newVegas:Spine2
			{
				OFFSET 0.000000 13.600006 -2.842500
				CHANNELS 3 Xrotation Yrotation Zrotation
				JOINT newVegas:Neck
				{
					OFFSET 0.000000 9.624100 -2.890100
					CHANNELS 3 Xrotation Yrotation Zrotation
					JOINT newVegas:Head
					{
						OFFSET 0.000000 14.068802 -1.351900
						CHANNELS 3 Xrotation Yrotation Zrotation
						JOINT newVegas:Hair_Back
						{
							OFFSET 0.000000 3.231903 -17.524799
							CHANNELS 3 Xrotation Yrotation Zrotation
							End Site
							{
								OFFSET 0.000000 19.849884 0.000000
							}
						}
						JOINT newVegas:Hair_Front
						{
							OFFSET 0.000000 31.260406 4.573800
							CHANNELS 3 Xrotation Yrotation Zrotation
							JOINT newVegas:Hair_Front1
							{
								OFFSET 0.000000 2.284103 11.993300
								CHANNELS 3 Xrotation Yrotation Zrotation
								JOINT newVegas:Hair_Front2
								{
									OFFSET 0.000000 2.284103 11.993300
									CHANNELS 3 Xrotation Yrotation Zrotation
									End Site
									{
										OFFSET 0.000000 12.208862 0.000000
									}
								}
							}
						}
						JOINT newVegas:Jowel
						{
							OFFSET 0.000000 -7.458206 6.864100
							CHANNELS 3 Xrotation Yrotation Zrotation
							End Site
							{
								OFFSET 0.000000 19.849884 0.000000
							}
						}
					}
				}
				JOINT newVegas:LeftShoulder
				{
					OFFSET 15.263000 10.923401 -0.547700
					CHANNELS 3 Xrotation Yrotation Zrotation
					JOINT newVegas:LeftArm
					{
						OFFSET 25.438599 -2.830597 -13.032500
						CHANNELS 3 Xrotation Yrotation Zrotation
						JOINT newVegas:LeftForeArm
						{
							OFFSET 29.960503 0.000000 0.000000
							CHANNELS 3 Xrotation Yrotation Zrotation
							JOINT newVegas:LeftHand
							{
								OFFSET 27.849251 0.000000 0.000000
								CHANNELS 3 Xrotation Yrotation Zrotation
								JOINT newVegas:LeftHandThumb1
								{
									OFFSET 4.487587 -3.305161 6.305391
									CHANNELS 3 Xrotation Yrotation Zrotation
									JOINT newVegas:LeftHandThumb2
									{
										OFFSET 5.480453 -3.164139 3.164143
										CHANNELS 3 Xrotation Yrotation Zrotation
										JOINT newVegas:LeftHandThumb3
										{
											OFFSET 5.159721 -2.978973 2.978967
											CHANNELS 3 Xrotation Yrotation Zrotation
											End Site
											{
												OFFSET 2.494507 5.926697 1.738678
											}
										}
									}
								}
								JOINT newVegas:LeftHandIndex1
								{
									OFFSET 18.578728 -0.527832 5.208049
									CHANNELS 3 Xrotation Yrotation Zrotation
									JOINT newVegas:LeftHandIndex2
									{
										OFFSET 3.192009 0.000000 0.000000
										CHANNELS 3 Xrotation Yrotation Zrotation
										JOINT newVegas:LeftHandIndex3
										{
											OFFSET 3.835129 0.000000 0.000000
											CHANNELS 3 Xrotation Yrotation Zrotation
											End Site
											{
												OFFSET -0.034599 3.816971 0.371180
											}
										}
									}
								}
								JOINT newVegas:LeftHandMiddle1
								{
									OFFSET 18.476105 0.000000 0.000000
									CHANNELS 3 Xrotation Yrotation Zrotation
									JOINT newVegas:LeftHandMiddle2
									{
										OFFSET 3.324875 0.000000 0.000000
										CHANNELS 3 Xrotation Yrotation Zrotation
										JOINT newVegas:LeftHandMiddle3
										{
											OFFSET 4.596550 0.000000 0.000000
											CHANNELS 3 Xrotation Yrotation Zrotation
											End Site
											{
												OFFSET 0.057701 4.578827 0.399218
											}
										}
									}
								}
								JOINT newVegas:LeftHandRing1
								{
									OFFSET 17.732719 0.121887 -4.201567
									CHANNELS 3 Xrotation Yrotation Zrotation
									JOINT newVegas:LeftHandRing2
									{
										OFFSET 2.733170 0.000000 0.000000
										CHANNELS 3 Xrotation Yrotation Zrotation
										JOINT newVegas:LeftHandRing3
										{
											OFFSET 3.178268 0.000000 0.000000
											CHANNELS 3 Xrotation Yrotation Zrotation
											End Site
											{
												OFFSET 0.119102 3.170624 0.185394
											}
										}
									}
								}
								JOINT newVegas:LeftHandPinky1
								{
									OFFSET 15.989624 -0.606689 -7.535461
									CHANNELS 3 Xrotation Yrotation Zrotation
									JOINT newVegas:LeftHandPinky2
									{
										OFFSET 2.538986 0.000000 0.000000
										CHANNELS 3 Xrotation Yrotation Zrotation
										JOINT newVegas:LeftHandPinky3
										{
											OFFSET 2.593102 0.000000 0.000000
											CHANNELS 3 Xrotation Yrotation Zrotation
											End Site
											{
												OFFSET -0.150902 2.584198 0.152708
											}
										}
									}
								}
							}
							JOINT newVegas:Left_Sleeve
							{
								OFFSET 0.267448 -0.649796 0.577675
								CHANNELS 3 Xrotation Yrotation Zrotation
								End Site
								{
									OFFSET 0.000000 15.991241 0.000000
								}
							}
							JOINT newVegas:Left_CapeC
							{
								OFFSET 15.715958 -8.608795 -6.935905
								CHANNELS 3 Xrotation Yrotation Zrotation
								JOINT newVegas:Left_CapeC1
								{
									OFFSET 0.000000 -8.688499 0.000000
									CHANNELS 3 Xrotation Yrotation Zrotation
									End Site
									{
										OFFSET 0.000000 8.688499 0.000000
									}
								}
							}
						}
						JOINT newVegas:Left_CapeB
						{
							OFFSET 26.118385 -8.608795 -7.079235
							CHANNELS 3 Xrotation Yrotation Zrotation
							JOINT newVegas:Left_CapeB1
							{
								OFFSET 0.000000 -8.688499 0.000000
								CHANNELS 3 Xrotation Yrotation Zrotation
								End Site
								{
									OFFSET 0.000000 8.688499 0.000000
								}
							}
						}
						JOINT newVegas:Left_CapeA
						{
							OFFSET 5.115639 -8.608795 -10.395809
							CHANNELS 3 Xrotation Yrotation Zrotation
							JOINT newVegas:Left_CapeA1
							{
								OFFSET 0.000000 -8.688499 0.000000
								CHANNELS 3 Xrotation Yrotation Zrotation
								End Site
								{
									OFFSET 0.000000 8.688499 0.000000
								}
							}
						}
					}
				}
				JOINT newVegas:RightShoulder
				{
					OFFSET -15.263000 10.923401 -0.547700
					CHANNELS 3 Xrotation Yrotation Zrotation
					JOINT newVegas:RightArm
					{
						OFFSET -25.438599 -2.830597 -13.032500
						CHANNELS 3 Xrotation Yrotation Zrotation
						JOINT newVegas:RightForeArm
						{
							OFFSET -29.960503 0.000000 0.000000
							CHANNELS 3 Xrotation Yrotation Zrotation
							JOINT newVegas:RightHand
							{
								OFFSET -27.849251 0.000000 0.000000
								CHANNELS 3 Xrotation Yrotation Zrotation
								JOINT newVegas:RightHandThumb1
								{
									OFFSET -4.487587 -3.305161 6.305391
									CHANNELS 3 Xrotation Yrotation Zrotation
									JOINT newVegas:RightHandThumb2
									{
										OFFSET -5.480453 -3.164139 3.164143
										CHANNELS 3 Xrotation Yrotation Zrotation
										JOINT newVegas:RightHandThumb3
										{
											OFFSET -5.159721 -2.978973 2.978967
											CHANNELS 3 Xrotation Yrotation Zrotation
											End Site
											{
												OFFSET -2.494507 5.926697 1.738678
											}
										}
									}
								}
								JOINT newVegas:RightHandIndex1
								{
									OFFSET -18.578728 -0.527832 5.208049
									CHANNELS 3 Xrotation Yrotation Zrotation
									JOINT newVegas:RightHandIndex2
									{
										OFFSET -3.192009 0.000000 0.000000
										CHANNELS 3 Xrotation Yrotation Zrotation
										JOINT newVegas:RightHandIndex3
										{
											OFFSET -3.835129 0.000000 0.000000
											CHANNELS 3 Xrotation Yrotation Zrotation
											End Site
											{
												OFFSET 0.034599 3.816971 0.371180
											}
										}
									}
								}
								JOINT newVegas:RightHandMiddle1
								{
									OFFSET -18.476105 0.000000 0.000000
									CHANNELS 3 Xrotation Yrotation Zrotation
									JOINT newVegas:RightHandMiddle2
									{
										OFFSET -3.324875 0.000000 0.000000
										CHANNELS 3 Xrotation Yrotation Zrotation
										JOINT newVegas:RightHandMiddle3
										{
											OFFSET -4.596550 0.000000 0.000000
											CHANNELS 3 Xrotation Yrotation Zrotation
											End Site
											{
												OFFSET -0.057701 4.578827 0.399218
											}
										}
									}
								}
								JOINT newVegas:RightHandRing1
								{
									OFFSET -17.732719 0.121887 -4.201567
									CHANNELS 3 Xrotation Yrotation Zrotation
									JOINT newVegas:RightHandRing2
									{
										OFFSET -2.733170 0.000000 0.000000
										CHANNELS 3 Xrotation Yrotation Zrotation
										JOINT newVegas:RightHandRing3
										{
											OFFSET -3.178268 0.000000 0.000000
											CHANNELS 3 Xrotation Yrotation Zrotation
											End Site
											{
												OFFSET -0.119102 3.170624 0.185394
											}
										}
									}
								}
								JOINT newVegas:RightHandPinky1
								{
									OFFSET -15.989624 -0.606689 -7.535461
									CHANNELS 3 Xrotation Yrotation Zrotation
									JOINT newVegas:RightHandPinky2
									{
										OFFSET -2.538986 0.000000 0.000000
										CHANNELS 3 Xrotation Yrotation Zrotation
										JOINT newVegas:RightHandPinky3
										{
											OFFSET -2.593102 0.000000 0.000000
											CHANNELS 3 Xrotation Yrotation Zrotation
											End Site
											{
												OFFSET 0.150902 2.584198 0.152708
											}
										}
									}
								}
							}
							JOINT newVegas:Right_CapeC
							{
								OFFSET -15.715958 -8.608795 -6.935905
								CHANNELS 3 Xrotation Yrotation Zrotation
								JOINT newVegas:Right_CapeC1
								{
									OFFSET 0.000000 -8.688499 0.000000
									CHANNELS 3 Xrotation Yrotation Zrotation
									End Site
									{
										OFFSET 0.000000 8.688499 0.000000
									}
								}
							}
							JOINT newVegas:Right_Sleeve
							{
								OFFSET -0.267448 -0.649994 0.577675
								CHANNELS 3 Xrotation Yrotation Zrotation
								End Site
								{
									OFFSET 0.000000 15.991302 0.000000
								}
							}
						}
						JOINT newVegas:Right_CapeA
						{
							OFFSET -5.115540 -8.608795 -10.395824
							CHANNELS 3 Xrotation Yrotation Zrotation
							JOINT newVegas:Right_CapeA1
							{
								OFFSET 0.000000 -8.688499 0.000000
								CHANNELS 3 Xrotation Yrotation Zrotation
								End Site
								{
									OFFSET 0.000000 8.688499 0.000000
								}
							}
						}
						JOINT newVegas:Right_CapeB
						{
							OFFSET -26.118187 -8.608795 -7.079266
							CHANNELS 3 Xrotation Yrotation Zrotation
							JOINT newVegas:Right_CapeB1
							{
								OFFSET 0.000000 -8.688499 0.000000
								CHANNELS 3 Xrotation Yrotation Zrotation
								End Site
								{
									OFFSET 0.000000 8.688499 0.000000
								}
							}
						}
					}
				}
				JOINT newVegas:Left_Collar
				{
					OFFSET 18.625099 8.655502 8.828100
					CHANNELS 3 Xrotation Yrotation Zrotation
					JOINT newVegas:Left_Collar1
					{
						OFFSET 14.783401 10.540405 -1.259500
						CHANNELS 3 Xrotation Yrotation Zrotation
						End Site
						{
							OFFSET 0.000000 18.199875 0.000000
						}
					}
				}
				JOINT newVegas:Collar_Back
				{
					OFFSET 0.000000 15.630707 -20.132601
					CHANNELS 3 Xrotation Yrotation Zrotation
					End Site
					{
						OFFSET 0.000000 22.523010 0.000000
					}
				}
				JOINT newVegas:Left_Peck
				{
					OFFSET 17.239599 -5.132599 25.482599
					CHANNELS 3 Xrotation Yrotation Zrotation
					End Site
					{
						OFFSET 0.000000 22.523010 0.000000
					}
				}
				JOINT newVegas:Right_Peck
				{
					OFFSET -17.239599 -5.132202 25.482599
					CHANNELS 3 Xrotation Yrotation Zrotation
					End Site
					{
						OFFSET 0.000000 22.523010 0.000000
					}
				}
				JOINT newVegas:Right_Collar
				{
					OFFSET -18.625099 8.655792 8.828100
					CHANNELS 3 Xrotation Yrotation Zrotation
					JOINT newVegas:Right_Collar1
					{
						OFFSET -14.783401 10.539993 -1.259500
						CHANNELS 3 Xrotation Yrotation Zrotation
						End Site
						{
							OFFSET 0.000000 18.199631 0.000000
						}
					}
				}
			}
		}
		JOINT newVegas:Belly
		{
			OFFSET 0.000000 -6.540398 9.014299
			CHANNELS 3 Xrotation Yrotation Zrotation
			End Site
			{
				OFFSET 0.000000 11.566666 0.000000
			}
		}
	}
	JOINT newVegas:ElvisFacialAnim_Joint
	{
		OFFSET 1.000000 -95.330101 -8.825800
		CHANNELS 3 Xrotation Yrotation Zrotation
		End Site
		{
			OFFSET 0.000000 35.315800 0.000000
		}
	}
}
MOTION
Frames: 4
Frame Time: 0.016667
0.608852 95.056297 3.385347 -3.420355 3.942450 -3.389127 -0.000000 -0.000000 0.000000 -37.517932 -8.226928 -4.771214 52.383122 -0.415874 0.020983 26.569923 4.036857 12.577582 -0.000002 -0.000000 -0.000002 -0.000001 -0.000000 -0.000000 -18.939090 -11.828253 8.056939 31.679206 -0.317805 -0.142089 17.734521 -0.681777 -8.881678 0.000000 0.000000 0.000000 0.000001 0.000001 0.000001 7.484028 -0.399293 -0.578371 -2.114712 -0.634066 1.955411 -2.107417 -0.526124 1.991271 -1.370083 -0.531252 0.127326 -1.370084 -0.531252 0.127326 0.000000 0.000000 -0.000000 -1.370017 -0.531252 0.127326 -1.370107 -0.531252 0.127325 -0.000001 0.000000 -0.000000 0.000000 0.000000 -0.000000 1.091369 1.577358 -3.543032 -1.207959 1.492936 -78.012775 20.698680 -13.799219 -0.079233 -0.026782 -3.262842 -0.409687 10.557726 -2.873390 25.085796 -5.464178 26.111892 -7.055810 -0.000001 0.000000 -0.000004 2.372212 3.636003 -10.145445 -2.155741 2.456260 -20.339699 0.000004 0.000000 0.000001 -1.984292 5.666070 -18.668022 0.262867 5.090454 -32.022430 0.000000 0.000000 0.000005 -4.974555 10.107086 -16.316149 4.008938 4.056144 -38.803705 0.000000 0.000001 -0.000002 -6.472568 11.328375 -26.083970 10.736407 2.575040 -37.642549 -0.000000 -0.000002 0.000002 0.000000 -0.000001 0.000001 0.000000 -0.000001 0.000001 -0.000001 -0.000001 0.000001 0.000000 0.000000 0.000001 0.000000 0.000001 0.000000 0.000000 0.000000 0.000001 0.000000 -0.000000 0.000001 0.487466 5.285027 4.298001 -7.282518 4.832114 74.584846 13.988542 13.383151 -4.466971 0.106872 3.530070 -2.699088 15.566073 -0.729100 -16.762758 -6.579426 -24.370064 7.035601 -0.000001 -0.000003 0.000001 2.252298 -2.297207 4.747753 -2.162978 -2.444712 14.947852 -0.000000 0.000002 -0.000000 -1.986986 -5.675757 8.743282 0.263313 -5.087428 22.099615 -0.000003 0.000000 -0.000001 -4.977257 -10.114501 7.762300 4.005866 -4.045808 30.251041 0.000002 0.000000 0.000003 -6.472723 -11.324478 16.980586 10.704482 -2.553592 28.536093 -0.000000 -0.000000 -0.000000 -0.000001 0.000002 -0.000002 -0.000003 -0.000000 -0.000001 -0.000001 0.000002 -0.000002 0.000002 0.000001 -0.000001 0.000002 0.000002 -0.000001 0.000002 0.000001 -0.000001 0.000002 0.000002 -0.000001 -0.000000 -0.000000 0.000000 -0.000000 -0.000000 0.000000 -0.000000 -0.000000 0.000000 -0.000000 -0.000000 0.000000 -0.000000 -0.000000 0.000000 -0.000000 -0.000000 0.000000 -0.000000 -0.000000 0.000000 0.000000 -0.000000 0.000000 -0.000000 -0.000000 0.000000 
0.713480 95.332939 4.562006 -3.030835 3.370022 -2.852327 -0.000000 -0.000000 0.000000 -37.907304 -7.197589 -4.861291 48.391142 -0.001338 0.048528 26.798191 3.927748 12.364997 -0.000001 0.000000 -0.000000 -0.000001 -0.000000 0.000000 -18.326999 -12.196964 7.112399 31.766571 1.116415 -0.052781 16.717573 -0.801961 -8.946647 0.000002 -0.000000 0.000000 0.000000 0.000001 -0.000000 7.153953 -0.233925 -0.839039 -2.090693 -0.448768 1.814106 -2.078974 -0.346472 1.846579 -1.384530 -0.469338 0.094638 -1.384532 -0.469339 0.094638 -0.000000 0.000000 0.000000 -1.384601 -0.469338 0.094637 -1.384456 -0.469339 0.094638 -0.000000 -0.000000 0.000000 -0.000000 0.000000 0.000000 1.113567 2.099116 -3.775543 -1.049470 1.509237 -77.890787 22.585016 -13.984393 0.425079 -0.073496 -2.782484 -1.181336 10.559562 -2.850867 25.087976 -5.399140 26.208078 -7.056700 -0.000002 0.000002 -0.000004 2.371330 3.631455 -10.250507 -2.155567 2.457898 -20.421239 -0.000004 -0.000001 -0.000000 -1.983703 5.667480 -18.758751 0.262902 5.090872 -32.139363 0.000001 -0.000001 0.000000 -4.974845 10.106015 -16.411116 4.008889 4.055665 -38.919705 0.000000 -0.000001 -0.000001 -6.469980 11.329347 -26.177427 10.735001 2.574654 -37.767196 -0.000001 -0.000002 0.000000 0.000002 -0.000001 -0.000000 0.000002 -0.000001 -0.000000 0.000001 -0.000001 0.000000 -0.000000 0.000000 -0.000001 -0.000000 0.000000 -0.000001 -0.000000 0.000000 -0.000001 -0.000000 0.000000 -0.000001 0.496336 5.504695 4.289108 -7.589865 5.574938 74.483807 15.755875 14.490846 -5.636451 0.036786 2.963947 -2.025679 15.550748 -0.718120 -16.790106 -6.612710 -24.317528 7.035354 -0.000001 -0.000003 -0.000001 2.246692 -2.245052 4.764508 -2.162964 -2.443906 14.905561 0.000001 0.000003 -0.000001 -1.995176 -5.622321 8.773661 0.264325 -5.087725 22.134527 0.000001 0.000000 0.000000 -4.977490 -10.115051 7.789050 4.005079 -4.044414 30.441788 -0.000001 0.000001 -0.000000 -6.472022 -11.324894 17.009237 10.695594 -2.560170 28.880150 -0.000003 -0.000002 -0.000001 -0.000000 -0.000001 0.000001 -0.000000 0.000000 0.000001 -0.000000 -0.000001 0.000002 -0.000000 0.000001 -0.000000 -0.000000 0.000002 -0.000000 -0.000000 0.000001 -0.000000 -0.000000 0.000002 -0.000001 -0.000000 0.000000 0.000000 -0.000000 0.000000 0.000000 -0.000000 0.000000 0.000000 -0.000000 0.000000 0.000000 -0.000000 0.000000 0.000000 -0.000000 0.000000 0.000000 -0.000000 0.000000 0.000000 -0.000000 0.000000 -0.000000 -0.000000 -0.000000 0.000000 
0.813071 95.753128 5.824909 -2.704116 2.925210 -2.428013 0.000000 -0.000000 0.000000 -38.103194 -5.986634 -4.617611 44.382856 -0.399495 0.010108 25.984598 3.617570 11.107207 -0.000002 0.000000 0.000000 0.000000 -0.000000 0.000000 -16.965211 -12.645849 6.236583 30.840186 2.245643 0.042128 15.903197 -0.783084 -8.824884 0.000001 -0.000000 -0.000000 0.000000 0.000000 -0.000001 6.864771 -0.100150 -0.891630 -2.080432 -0.313499 1.675652 -2.058832 -0.215386 1.707925 -1.365046 -0.396705 0.048563 -1.365043 -0.396706 0.048563 0.000000 -0.000000 0.000000 -1.365039 -0.396706 0.048563 -1.365048 -0.396704 0.048563 -0.000000 0.000000 -0.000000 0.000000 -0.000000 -0.000000 1.161757 2.620607 -4.138579 -0.675547 1.681685 -77.753999 23.741077 -14.201286 0.898225 -0.068924 -3.014303 -2.607533 10.564708 -2.788194 25.093984 -5.218067 26.476040 -7.060043 0.000000 -0.000000 -0.000003 2.368898 3.618901 -10.542920 -2.155426 2.457284 -20.648570 0.000003 0.000002 -0.000001 -1.982009 5.665981 -19.011630 0.263192 5.092142 -32.464763 -0.000001 -0.000001 0.000004 -4.975650 10.103259 -16.675497 4.008804 4.054405 -39.242459 0.000001 -0.000002 -0.000005 -6.467936 11.326211 -26.437494 10.731178 2.573521 -38.114334 0.000001 0.000000 -0.000002 0.000001 0.000000 -0.000001 0.000001 0.000000 -0.000001 0.000000 0.000001 -0.000001 -0.000000 0.000000 0.000000 -0.000000 0.000000 0.000000 -0.000000 0.000000 0.000000 -0.000000 -0.000000 -0.000000 0.521029 5.806645 4.065538 -8.045848 5.987358 74.740342 12.972007 13.640128 -3.836560 0.904509 8.387687 -8.131759 15.508219 -0.687445 -16.866070 -6.705464 -24.171350 7.034804 0.000001 -0.000002 -0.000001 2.231048 -2.099805 4.811215 -2.162877 -2.441597 14.787990 0.000004 -0.000001 0.000000 -2.018295 -5.473583 8.858218 0.267210 -5.088502 22.231800 -0.000001 0.000002 0.000001 -4.977000 -10.116597 7.863844 4.003012 -4.040797 30.972579 0.000002 0.000001 -0.000004 -6.469947 -11.326054 17.089077 10.673230 -2.578303 29.837576 -0.000001 -0.000003 -0.000004 0.000001 0.000001 -0.000001 0.000001 0.000003 -0.000002 0.000001 0.000001 -0.000000 -0.000000 0.000000 -0.000001 -0.000000 0.000001 -0.000000 -0.000000 0.000000 -0.000001 -0.000000 0.000001 -0.000000 -0.000000 -0.000000 -0.000000 -0.000000 -0.000000 -0.000000 -0.000000 -0.000000 -0.000000 -0.000000 -0.000000 -0.000000 -0.000000 -0.000000 -0.000000 -0.000000 -0.000000 -0.000000 -0.000000 -0.000000 -0.000000 -0.000000 -0.000000 0.000000 0.000000 -0.000000 0.000000 
0.933911 95.927856 7.051770 -2.332166 2.371778 -2.212125 -0.000000 -0.000000 0.000000 -38.163597 -4.463561 -4.509991 39.629577 -0.583503 -0.007998 27.063562 3.490623 11.640423 0.000001 0.000000 -0.000001 0.000000 -0.000000 0.000001 -16.064707 -14.265019 5.518490 30.651341 4.471839 0.225382 14.881008 -0.737773 -9.895564 -0.000000 -0.000000 -0.000000 0.000003 0.000001 -0.000000 6.709152 0.061114 -0.677648 -2.159528 -0.186708 1.502791 -2.121955 -0.096244 1.529946 -1.346419 -0.311256 -0.027219 -1.346418 -0.311256 -0.027219 0.000000 -0.000000 -0.000000 -1.346422 -0.311256 -0.027219 -1.346353 -0.311256 -0.027218 0.000000 -0.000000 -0.000000 0.000000 -0.000000 -0.000000 1.230187 3.222549 -4.608724 -0.356307 1.988795 -77.531984 24.130891 -14.364892 1.193139 -0.087116 -2.860552 -3.564222 10.572528 -2.692713 25.103124 -4.941861 26.884909 -7.067644 -0.000002 -0.000001 -0.000004 2.365293 3.599900 -10.988817 -2.155229 2.456408 -20.995066 0.000001 0.000002 0.000003 -1.979290 5.663882 -19.397181 0.263528 5.094002 -32.960837 0.000001 0.000002 0.000005 -4.973495 10.099545 -17.079214 4.008753 4.052768 -39.734489 0.000001 0.000001 0.000001 -6.465133 11.321825 -26.833906 10.726114 2.572094 -38.643291 0.000001 -0.000002 0.000000 0.000002 0.000000 0.000001 0.000002 0.000000 0.000001 0.000001 0.000000 0.000001 -0.000000 -0.000002 -0.000000 0.000000 -0.000002 -0.000001 -0.000000 -0.000002 -0.000000 0.000000 -0.000002 -0.000000 0.556173 6.268261 3.845602 -8.206174 7.015577 74.793686 12.132276 14.618271 -3.985063 0.884268 7.994516 -8.002567 15.443485 -0.640635 -16.981963 -6.846849 -23.948634 7.034702 0.000000 -0.000001 0.000001 2.207204 -1.878359 4.882428 -2.162694 -2.438029 14.608713 -0.000003 0.000001 -0.000001 -2.054341 -5.247012 8.987154 0.267253 -5.087481 22.379866 0.000001 0.000000 0.000001 -4.976063 -10.118962 7.977848 4.000146 -4.036004 31.781673 -0.000000 -0.000001 -0.000002 -6.466771 -11.327808 17.210700 10.645753 -2.605200 31.296255 -0.000003 -0.000002 -0.000002 -0.000002 0.000001 -0.000000 -0.000002 0.000000 -0.000001 -0.000002 0.000001 0.000001 0.000002 0.000002 0.000000 0.000002 0.000003 -0.000000 0.000002 0.000002 0.000000 0.000002 0.000003 -0.000000 0.000000 -0.000000 -0.000000 0.000000 -0.000000 -0.000000 0.000000 -0.000000 -0.000000 0.000000 -0.000000 -0.000000 0.000000 -0.000000 -0.000000 0.000000 -0.000000 -0.000000 0.000000 -0.000000 -0.000000 0.000000 0.000000 -0.000000 -0.000000 -0.000000 0.000000 
